<?xml version="1.0" encoding="UTF-8"?><svg id="Layer_2" xmlns="http://www.w3.org/2000/svg" viewBox="0 0 23.84 52.03"><defs><style>.cls-1{fill:#fff;stroke-width:0px;}</style></defs><g id="Layer_1-2"><path id="path179" class="cls-1" d="M10.38,29.44l-6.05,6.4C.66,39.48.03,44.15.03,45.94c-.03.19-.03.35-.03.56v.06c0,1.54.35,3.51.57,4.05l.44,1.41,12.8-12.96c1.8-1.79,2.68-4.27,2.46-6.81-.19-1.95-1.07-3.8-2.46-5.18l-1.58-1.57-.69-.69c0,.06.63,2.45-1.17,4.61v.02Z"/><path id="path196" class="cls-1" d="M.57,1.35c0,.06-1.01,3.77.32,8.38,1.07,3.7,4.1,7.12,4.1,7.12l12.65,12.62c2.14,2.13,1.54,4.8,1.48,4.9l.57-.63,1.64-1.57c1.42-1.41,2.27-3.23,2.46-5.18.03-.28.06-.53.06-.78v-.06c0-2.23-.91-4.36-2.49-5.96L.88,0l-.32,1.35h0Z"/></g></svg>