<?xml version="1.0" encoding="UTF-8"?><svg id="Layer_2" xmlns="http://www.w3.org/2000/svg" xmlns:xlink="http://www.w3.org/1999/xlink" viewBox="0 0 23.84 52.03"><defs><style>.cls-1{fill:url(#linear-gradient);}.cls-1,.cls-2{stroke-width:0px;}.cls-2{fill:url(#linear-gradient-2);}</style><linearGradient id="linear-gradient" x1="-3.68" y1="-17.75" x2="15.85" y2="1.62" gradientTransform="translate(0 30.55) scale(1 -1)" gradientUnits="userSpaceOnUse"><stop offset=".28" stop-color="#95c93d"/><stop offset=".29" stop-color="#91c53e"/><stop offset=".53" stop-color="#519846"/><stop offset=".74" stop-color="#0a7f48"/><stop offset=".9" stop-color="#007248"/><stop offset="1" stop-color="#006e47"/></linearGradient><linearGradient id="linear-gradient-2" x1="-2.94" y1="26.01" x2="24.36" y2="-.67" gradientTransform="translate(0 30.55) scale(1 -1)" gradientUnits="userSpaceOnUse"><stop offset="0" stop-color="#006e47"/><stop offset=".11" stop-color="#007047"/><stop offset=".23" stop-color="#007848"/><stop offset=".38" stop-color="#258548"/><stop offset=".52" stop-color="#559a46"/><stop offset=".68" stop-color="#85bb3f"/><stop offset=".72" stop-color="#95c93d"/></linearGradient></defs><g id="Layer_1-2"><path id="path179" class="cls-1" d="M10.38,29.44l-6.05,6.4C.66,39.48.03,44.15.03,45.94c-.03.19-.03.35-.03.56v.06c0,1.54.35,3.51.57,4.05l.44,1.41,12.8-12.96c1.8-1.79,2.68-4.27,2.46-6.81-.19-1.95-1.07-3.8-2.46-5.18l-1.58-1.57-.69-.69c0,.06.63,2.45-1.17,4.61Z"/><path id="path196" class="cls-2" d="M.57,1.35c0,.06-1.01,3.77.32,8.38,1.07,3.7,4.1,7.12,4.1,7.12l12.65,12.62c2.14,2.13,1.54,4.8,1.48,4.9l.57-.63,1.64-1.57c1.42-1.41,2.27-3.23,2.46-5.18.03-.28.06-.53.06-.78v-.06c0-2.23-.91-4.36-2.49-5.96L.88,0l-.32,1.35Z"/></g></svg>