<svg width="711" height="166" viewBox="0 0 711 166" fill="none" xmlns="http://www.w3.org/2000/svg">
<g clip-path="url(#clip0_244_4277)">
<path d="M170.4 67.5004C170.8 67.1004 171.1 66.7004 171.4 66.3004C171.4 66.3004 174.1 62.5004 174.9 60.9004C173.8 59.8004 171.8 58.1004 169 56.1004C168.4 55.7004 168.3 55.6004 168.3 55.6004L166.7 54.5004C161.4 51.2004 155.2 49.4004 146.5 49.4004C126.9 49.4004 112.6 64.4004 112.6 82.8004V83.0004C112.6 102.1 126.4 116.2 146.6 116.2C156.3 116.2 163.9 113 169.2 109.7C172.6 107.7 174.2 104.8 174.2 100.7V77.9004H144.8V84.1004C144.8 87.5004 147.6 90.2004 151 90.2004H160.5V99.4004C156.9 102 152.3 103.3 147.1 103.3C135.7 103.3 127.5 94.6004 127.5 82.8004V82.6004C127.5 71.6004 135.7 62.5004 146 62.5004C152.1 62.5004 156.2 64.2004 160.1 66.9004C161.1 67.6004 160.8 67.4004 160.8 67.4004C163 69.6004 167.6 70.3004 170.4 67.5004Z" fill="white"/>
<path d="M273.4 67.5004C273.8 67.1004 274.1 66.7004 274.4 66.3004C274.4 66.3004 277.1 62.5004 277.9 60.9004C276.8 59.8004 274.8 58.1004 272 56.1004C271.4 55.7004 271.3 55.6004 271.3 55.6004C270.8 55.3004 269.7 54.6004 269.7 54.5004C264.4 51.2004 258.2 49.4004 249.5 49.4004C229.9 49.4004 215.6 64.4004 215.6 82.8004V83.0004C215.6 102.1 229.4 116.2 249.6 116.2C259.3 116.2 266.9 113 272.2 109.7C275.6 107.7 277.2 104.8 277.2 100.7V77.9004H247.8V84.1004C247.8 87.5004 250.6 90.2004 254 90.2004H263.5V99.4004C259.9 102 255.3 103.3 250.1 103.3C238.7 103.3 230.5 94.6004 230.5 82.8004V82.6004C230.5 71.6004 238.7 62.5004 249 62.5004C255.1 62.5004 259.2 64.2004 263.1 66.9004C264.1 67.6004 263.8 67.4004 263.8 67.4004C266 69.6004 270.6 70.3004 273.4 67.5004Z" fill="white"/>
<path d="M436 50.2002C432.4 50.2002 429.4 53.1002 429.4 56.7002V63.0002H449.6V108.8V115.9H457C460.9 115.9 463.8 113.1 463.8 109.5V63.0002H477.5C481.1 63.0002 484.1 60.3002 484.1 56.7002V50.2002H436Z" fill="white"/>
<path d="M188.4 57.3002V116H195.7C199.8 116 202.6 113.2 202.6 109.6V50.2002H195.3C191.5 50.3002 188.4 53.4002 188.4 57.3002Z" fill="white"/>
<path d="M77.3 50.2002H69.9C66 50.3002 62.9 53.5002 62.9 57.4002V115.9H104.1C107.7 115.9 110.7 113.1 110.7 109.5V102.8H77.3V50.2002Z" fill="white"/>
<path d="M0 57.3996V115.9H44.1C47.7 115.9 50.6 113.1 50.6 109.5V102.7H14.4V89.2996H39.5C43.1 89.2996 46 86.4996 46 82.8996C46 79.2996 43.1 76.3996 39.5 76.3996H14.4V62.9996H44.2C47.8 62.9996 50.7 60.1996 50.7 56.5996V50.0996H7.2C3.2 50.1996 0 53.3996 0 57.3996Z" fill="white"/>
<path d="M494.3 57.3996V115.9H538.4C542 115.9 544.9 113.1 544.9 109.5V102.7H508.6V89.2996H533.7C537.3 89.2996 540.2 86.4996 540.2 82.8996C540.2 79.2996 537.3 76.3996 533.7 76.3996H508.6V62.9996H538.4C542 62.9996 544.9 60.1996 544.9 56.5996V50.0996H501.5C497.5 50.1996 494.3 53.3996 494.3 57.3996Z" fill="white"/>
<path d="M411.8 50.2002C408.1 50.2002 405.1 53.1002 405.1 57.4002V90.7002L377.7 54.3002C375.8 51.8002 373.7 50.2002 370.3 50.2002H368.8C364.8 50.2002 361.7 53.3002 361.7 57.3002V108.7V116H369C372.9 116 375.7 113.2 375.7 109.6V74.1002L404.1 111.8C406 114.3 408.1 116 411.5 116H412C416 116 419.1 112.9 419.1 108.9V50.2002H411.8Z" fill="white"/>
<path d="M606.2 50.2002C602.5 50.2002 599.5 53.1002 599.5 57.4002V90.7002L572 54.3002C570.1 51.8002 568 50.2002 564.6 50.2002H563.1C559.1 50.2002 556 53.3002 556 57.3002V108.7V116H563.3C567.2 116 570 113.2 570 109.6V74.1002L598.4 111.8C600.3 114.3 602.4 116 605.8 116H606.3C610.3 116 613.4 112.9 613.4 108.9V50.2002H606.2Z" fill="white"/>
<path d="M327.3 55.5004C325.7 52.0004 323 49.9004 319.1 49.9004H318.3C314.4 49.9004 311.6 52.0004 310 55.5004L285.3 111.6C285.3 111.6 288.9 114.8 290.8 115.6C292.2 116 292.3 116 293.2 116C296.2 116 298.6 114.3 299.7 111.6L303.3 103.1H333.6L337 111.1C338.3 114.1 340.5 116 343.8 116C344.8 116 345.9 115.8 346.7 115.3C348.9 114.3 352.1 111.5 352.1 111.5L327.3 55.5004ZM308.6 90.4004L318.4 67.2004L328.2 90.4004H308.6Z" fill="white"/>
<path d="M667.6 93.7996L648.4 114.2C636.8 125.8 634.8 140.7 634.8 146.4C634.7 147 634.7 147.5 634.7 148.2V148.4C634.7 153.3 635.8 159.6 636.5 161.3L637.9 165.8L678.5 124.5C684.2 118.8 687 110.9 686.3 102.8C685.7 96.5996 682.9 90.6996 678.5 86.2996L673.5 81.2996L671.3 79.0996C671.3 79.2996 673.3 86.8996 667.6 93.7996Z" fill="url(#paint0_linear_244_4277)"/>
<path d="M636.5 4.3C636.5 4.5 633.3 16.3 637.5 31C640.9 42.8 650.5 53.7 650.5 53.7L690.6 93.9C697.4 100.7 695.5 109.2 695.3 109.5L697.1 107.5L702.3 102.5C706.8 98 709.5 92.2 710.1 86C710.2 85.1 710.3 84.3 710.3 83.5V83.3C710.3 76.2 707.4 69.4 702.4 64.3L637.5 0L636.5 4.3Z" fill="url(#paint1_linear_244_4277)"/>
</g>
<defs>
<linearGradient id="paint0_linear_244_4277" x1="622.822" y1="153.731" x2="685.06" y2="92.2904" gradientUnits="userSpaceOnUse">
<stop offset="0.2808" stop-color="#95C93D"/>
<stop offset="0.292" stop-color="#91C53E"/>
<stop offset="0.533" stop-color="#519846"/>
<stop offset="0.7397" stop-color="#0A7F48"/>
<stop offset="0.9021" stop-color="#007248"/>
<stop offset="1" stop-color="#006E47"/>
</linearGradient>
<linearGradient id="paint1_linear_244_4277" x1="625.183" y1="14.6884" x2="712.158" y2="99.2692" gradientUnits="userSpaceOnUse">
<stop stop-color="#006E47"/>
<stop offset="0.106" stop-color="#007047"/>
<stop offset="0.2349" stop-color="#007848"/>
<stop offset="0.3755" stop-color="#258548"/>
<stop offset="0.5247" stop-color="#559A46"/>
<stop offset="0.679" stop-color="#85BB3F"/>
<stop offset="0.7192" stop-color="#95C93D"/>
</linearGradient>
<clipPath id="clip0_244_4277">
<rect width="710.3" height="165.7" fill="white"/>
</clipPath>
</defs>
</svg>
