<svg xmlns="http://www.w3.org/2000/svg" xmlns:xlink="http://www.w3.org/1999/xlink" viewBox="0 0 585.3 177" xmlns:v="https://vecta.io/nano"><path d="M540 99.9l-20.5 21.8c-9 9.2-14.2 21.5-14.5 34.3v2c0 4.7.7 9.3 1.8 13.8l1.5 4.7 43.2-43.9c11.2-11.3 11.2-29.5 0-40.7l-5.3-5.3-2.2-2.4c1.1 5.6-.3 11.4-4 15.7M506.9 4.6A58.12 58.12 0 0 0 508 33c3.6 12.6 13.8 24.2 13.8 24.2l42.7 42.8c4.3 4.3 6.2 10.5 5 16.5l1.9-2.1 5.5-5.3c4.7-4.7 7.7-11 8.3-17.6.1-.9.1-1.8.1-2.7v-.2c0-7.6-3.1-14.9-8.5-20.3L507.8 0l-.9 4.6z" fill="#93d500"/><defs><path id="A" d="M540 99.9l-20.5 21.8c-9 9.2-14.2 21.5-14.5 34.3v2c0 4.7.7 9.3 1.8 13.8l1.5 4.7 43.2-43.9c11.2-11.3 11.2-29.5 0-40.7l-5.3-5.3-2.2-2.4c1.1 5.6-.3 11.4-4 15.7"/></defs><clipPath id="B"><use xlink:href="#A"/></clipPath><g clip-path="url(#B)"><linearGradient id="C" x1="-701.865" x2="-700.177" y1="-297.794" y2="-297.794" gradientTransform="scale(56.8 -56.8) rotate(52.8 -643.359 565.296)" gradientUnits="userSpaceOnUse"><stop offset="0" stop-color="#006d46" stop-opacity="0"/><stop offset=".17" stop-color="#006d46" stop-opacity=".05"/><stop offset=".37" stop-color="#006d46" stop-opacity=".18"/><stop offset=".59" stop-color="#006d46" stop-opacity=".41"/><stop offset=".83" stop-color="#006d46" stop-opacity=".72"/><stop offset="1" stop-color="#006d46"/></linearGradient><path fill="url(#C)" d="M460.4 142.8l64.8-85.4 79.8 60.5-64.8 85.4z"/></g><defs><path id="D" d="M506.9 4.6c-2 9.4-1.6 19.2 1.1 28.4 3.6 12.6 13.8 24.2 13.8 24.2l42.7 42.8c4.3 4.3 6.2 10.5 5 16.5l1.9-2.1 5.5-5.3c4.7-4.7 7.7-11 8.3-17.6.1-.9.1-1.8.1-2.7v-.2c0-7.6-3.1-14.9-8.5-20.3L507.8 0l-.9 4.6z"/></defs><clipPath id="E"><use xlink:href="#D"/></clipPath><g clip-path="url(#E)"><linearGradient id="F" x1="-720.995" x2="-719.307" y1="-297.656" y2="-297.656" gradientTransform="scale(-53.11 53.11) rotate(-49 -37.432 -927.17)" gradientUnits="userSpaceOnUse"><stop offset="0" stop-color="#006d46" stop-opacity="0"/><stop offset=".17" stop-color="#006d46" stop-opacity=".05"/><stop offset=".37" stop-color="#006d46" stop-opacity=".18"/><stop offset=".59" stop-color="#006d46" stop-opacity=".41"/><stop offset=".83" stop-color="#006d46" stop-opacity=".72"/><stop offset="1" stop-color="#006d46"/></linearGradient><path fill="url(#F)" d="M445.7 50.2l104.4-90.7L643 66.4l-104.3 90.7z"/></g><path fill="#ffffff" d="M393.9 53.9h-51c-3.8 0-6.9 3.2-6.9 7v6.9h21.4V123h7.9c4-.2 7.2-3.5 7.2-7.5V67.8H387c3.8 0 6.9-3.1 7-6.9v-.1l-.1-6.9zm-76.6-.6c-4 .2-7.2 3.5-7.2 7.5v35.3l-29-38.2c-2.1-2.6-4.2-4.4-7.8-4.4h-1.6c-4.1 0-7.4 3.3-7.5 7.4v62h7.7c4-.2 7.2-3.5 7.2-7.5V78.9l30.1 39.5c2.1 2.6 4.2 4.4 7.8 4.4h.5c4.1 0 7.5-3.3 7.5-7.4V53.3h-7.7zm133 .6h-44c-3.8 0-6.9 3.1-7 6.9v6.9h21.5V123h7.9c4-.2 7.2-3.5 7.2-7.5V67.8h14.5c3.8-.1 6.8-3.1 6.9-6.9V54l-7-.1zM219 52.8h-.9c-3.9-.1-7.4 2.3-8.8 6L183 118.6s3.8 3.5 5.9 4.2c.8.3 1.7.5 2.6.5 3.1 0 5.8-1.9 7-4.7l3.8-9h32.3l3.6 8.5c1.4 3.1 3.7 5.2 7.3 5.2 1.1 0 2.1-.2 3.1-.7 2.1-1.1 4-2.5 5.8-4L228 58.8c-1.9-3.7-4.9-6-9-6zM207.9 96l10.4-24.8L228.7 96h-20.8zm274.5-35.4v-7.3h-7.7c-4.1.1-7.4 3.5-7.3 7.6V123h7.7c4.1-.1 7.3-3.4 7.3-7.5V60.9v-.3zm-387-7.3h-7.7c-4.1.1-7.4 3.5-7.3 7.6V123h7.7c4.1-.1 7.3-3.4 7.3-7.5V53.3zM61.3 71.8c.4-.4.8-.8 1.1-1.3 0 0 2.8-4 3.7-5.7-1.9-1.9-4-3.5-6.3-5-.6-.4-.7-.6-.7-.6-.5-.4-1.1-.7-1.6-1.1l-.1-.1c-5.6-3.5-12.2-5.3-21.4-5.3-20.9 0-36 15.9-36 35.4v.2c0 20.3 14.7 35.3 36 35.3 8.5 0 16.8-2.4 23.9-6.9 3.5-1.9 5.6-5.6 5.3-9.6V82.9H34v6.5c0 3.5 2.9 6.4 6.4 6.4h10.3v9.9c-4.2 2.8-9.1 4.3-14.2 4.1-12.1 0-20.7-9.2-20.7-21.7v-.2c0-11.6 8.7-21.4 19.7-21.4 5.4-.2 10.6 1.5 15 4.7l.7.5c2.2 2.4 7.1 3.1 10.1.1zm109.1 0c.4-.4.8-.8 1.1-1.3 0 0 2.8-4 3.7-5.7-1.9-1.9-4-3.5-6.3-5-.6-.4-.7-.6-.7-.6-.5-.4-1.1-.7-1.6-1.1l-.1-.1c-5.6-3.5-12.2-5.3-21.4-5.3-20.7 0-35.9 15.9-35.9 35.4v.2c0 20.3 14.7 35.3 36 35.3 8.5 0 16.8-2.4 23.9-6.9 3.5-1.9 5.6-5.6 5.3-9.6V82.9h-31.3v6.5c0 3.5 2.9 6.4 6.4 6.4h10.3v9.9c-4.2 2.8-9.1 4.3-14.2 4.1-12.1 0-20.7-9.2-20.7-21.7v-.2c0-11.6 8.7-21.4 19.7-21.4 5.4-.2 10.6 1.5 15 4.7l.7.5c2.3 2.4 7.1 3.1 10.1.1z"/></svg>