<?xml version="1.0" encoding="UTF-8"?>
<svg id="Layer_1" data-name="Layer 1" xmlns="http://www.w3.org/2000/svg" viewBox="0 0 260 56.39">
  <defs>
    <style>
      .cls-1 {
        fill: #fff;
      }
    </style>
  </defs>
  <polygon class="cls-1" points="98.88 12.38 80.02 26.85 80.02 12.42 77.61 12.42 77.61 37.33 80.02 37.33 80.02 29.6 85.94 25.07 97.72 37.33 100.83 37.33 87.72 23.69 102.41 12.38 98.88 12.38"/>
  <path class="cls-1" d="M123.77,21.39c-.96-.88-2.12-1.6-3.46-2.12-1.35-.53-2.87-.8-4.51-.8s-3.02.28-4.31.82c-1.27.54-2.38,1.26-3.29,2.16-.9.89-1.61,1.92-2.12,3.06-.5,1.14-.76,2.34-.79,3.57,0,1.19.27,2.36.8,3.5.53,1.13,1.28,2.16,2.24,3.06.96.9,2.12,1.64,3.45,2.18,1.34.55,2.82.83,4.39.83.84,0,1.73-.1,2.64-.29.91-.19,1.79-.47,2.6-.84.83-.37,1.59-.85,2.25-1.42.67-.58,1.2-1.25,1.56-1.99l.34-.7-2.3-.5-.28.51c-.28.5-.66.95-1.13,1.34-.48.4-1.03.74-1.64,1.02-.61.28-1.27.5-1.97.65-.69.15-1.39.23-2.07.23-1.16,0-2.24-.2-3.22-.58-.99-.39-1.87-.93-2.62-1.6-.75-.67-1.37-1.46-1.83-2.34-.34-.66-.58-1.35-.71-2.06h19.04v-1.04c-.03-1.25-.31-2.46-.84-3.6-.53-1.15-1.28-2.17-2.23-3.05ZM107.77,27.08c.1-.65.3-1.31.58-1.95.38-.87.93-1.66,1.62-2.35.68-.68,1.53-1.25,2.52-1.68.97-.42,2.08-.64,3.31-.64s2.35.19,3.36.56c1.01.37,1.89.89,2.62,1.53.74.65,1.34,1.43,1.8,2.32.35.69.6,1.43.72,2.22h-16.52Z"/>
  <path class="cls-1" d="M140.14,34.21l-8.69-15.48h-2.66l10.09,17.93c-.73,1.38-1.31,2.45-1.73,3.23-.44.83-.78,1.45-1,1.85-.22.4-.37.66-.43.76-.02.03-.04.06-.03.06,0,0,0,0,0,0-.02.02-.09.06-.25.11-.04.01-.27.06-1.07.06h-.81v2h.81c.86,0,1.53-.08,2.04-.24.58-.19,1.03-.49,1.35-.92l.3-.43,12.96-24.41h-2.65l-8.23,15.48Z"/>
  <path class="cls-1" d="M170.72,32.55c-.13.43-.4.82-.85,1.18-.5.4-1.07.75-1.7,1.04-.63.29-1.32.52-2.04.67-.72.15-1.38.23-1.96.23-1.16,0-2.26-.21-3.27-.61-1.03-.42-1.94-.98-2.69-1.68-.77-.7-1.38-1.52-1.83-2.43-.44-.9-.67-1.86-.67-2.86,0-.9.19-1.82.56-2.73.37-.91.91-1.74,1.6-2.46.68-.71,1.53-1.3,2.53-1.76.98-.44,2.12-.67,3.4-.67,1.45,0,2.77.25,3.94.74,1.15.48,2.05,1.25,2.76,2.33l.33.51,2.27-.69-.41-.67c-.76-1.22-1.83-2.24-3.2-3.02-1.39-.8-3.31-1.2-5.69-1.2-1.54,0-2.99.28-4.29.82-1.29.54-2.41,1.26-3.33,2.16-.92.89-1.64,1.92-2.14,3.07-.5,1.14-.75,2.34-.75,3.57s.27,2.36.8,3.5c.53,1.13,1.28,2.16,2.24,3.06.96.9,2.12,1.64,3.45,2.18,1.34.55,2.82.83,4.39.83.81,0,1.68-.1,2.6-.29.91-.19,1.79-.47,2.6-.84.83-.37,1.58-.85,2.23-1.41.67-.58,1.17-1.26,1.47-2.01l.26-.65-2.42-.6-.2.68Z"/>
  <path class="cls-1" d="M195.77,21.48c-.53-.86-1.29-1.58-2.27-2.14-1-.57-2.35-.87-3.98-.87-.93,0-1.88.12-2.8.36-.91.24-1.78.58-2.6,1-.82.43-1.59.96-2.3,1.59-.08.07-.16.14-.23.22v-9.99h-2.42v25.67h2.42v-11.48c.22-.66.58-1.31,1.06-1.93.51-.65,1.12-1.24,1.83-1.75.7-.51,1.5-.92,2.37-1.24.85-.31,1.75-.46,2.68-.46,1.07,0,1.93.17,2.56.51.65.35,1.15.81,1.52,1.39.39.62.65,1.33.78,2.12.14.83.21,1.69.21,2.57v10.28h2.42v-10.28c0-.89-.08-1.83-.23-2.8-.16-1.02-.5-1.95-1.01-2.78Z"/>
  <path class="cls-1" d="M206.91,20.04c-.75.44-1.44.97-2.05,1.58v-2.88h-2.42v18.59h2.42v-11.48c.25-.71.58-1.37,1-1.97.42-.61.95-1.15,1.57-1.59.61-.45,1.33-.81,2.13-1.08.8-.27,1.7-.43,2.68-.47l.76-.03v-1.96h-.81c-2.01,0-3.79.44-5.28,1.3Z"/>
  <path class="cls-1" d="M234.57,21.56c-.94-.9-2.07-1.65-3.38-2.22-1.33-.58-2.84-.88-4.46-.88-1.48,0-2.9.26-4.21.78-1.3.51-2.45,1.22-3.41,2.1-.96.87-1.73,1.91-2.29,3.06-.56,1.16-.84,2.39-.84,3.67,0,1.21.26,2.39.78,3.51.51,1.12,1.25,2.14,2.18,3.03.94.9,2.08,1.63,3.39,2.17,1.32.55,2.8.85,4.4.87h.03c1.51-.02,2.94-.3,4.25-.83,1.29-.52,2.44-1.23,3.41-2.11.96-.87,1.72-1.89,2.27-3.03.55-1.14.82-2.35.82-3.6,0-1.14-.25-2.29-.75-3.44-.5-1.15-1.23-2.18-2.16-3.08ZM234.47,30.8c-.4.91-.97,1.74-1.71,2.46-.74.72-1.63,1.31-2.66,1.75-1,.44-2.14.66-3.37.66s-2.31-.21-3.28-.61c-.99-.41-1.86-.98-2.6-1.67-.74-.7-1.33-1.52-1.75-2.44-.42-.93-.66-1.9-.71-2.86,0-.89.2-1.81.6-2.72.39-.91.97-1.73,1.71-2.46.74-.72,1.63-1.32,2.67-1.77,1-.44,2.14-.67,3.36-.67,1.15,0,2.25.21,3.24.63,1.02.42,1.91.99,2.66,1.69.75.7,1.35,1.52,1.79,2.44.43.92.65,1.88.65,2.85,0,.89-.2,1.81-.6,2.72Z"/>
  <path class="cls-1" d="M259.86,24.29c-.1-1.02-.38-1.95-.83-2.78-.47-.87-1.19-1.6-2.13-2.16-.97-.58-2.29-.87-3.94-.87-.99,0-1.99.13-2.98.38-.97.25-1.9.6-2.76,1.03-.86.44-1.66.98-2.38,1.61-.09.08-.17.16-.26.23v-2.99h-2.42v18.59h2.42v-11.47c.25-.65.63-1.31,1.15-1.94.55-.67,1.2-1.26,1.94-1.77.74-.51,1.58-.92,2.49-1.22.89-.3,1.83-.45,2.8-.45,1.06,0,1.89.17,2.46.5.6.34,1.04.79,1.36,1.38.34.62.56,1.33.66,2.12.1.84.16,1.72.16,2.59v10.28h2.42v-10.28c0-.88-.05-1.81-.14-2.76Z"/>
  <path class="cls-1" d="M28.2,0C12.62,0,0,12.62,0,28.2s12.62,28.2,28.2,28.2,28.2-12.62,28.2-28.2C56.39,12.62,43.77,0,28.2,0ZM16.2,18.07v-3.44h17.5v3.44h-7.23v11.74l9.58-9.55h4.87s-8.72,8.7-8.72,8.7l10.3,12.35h-4.86s-7.92-9.88-7.92-9.88l-3.25,3.24v6.6h-3.44v-23.21h-6.83ZM28.85,7.71c-11.3,0-20.49,9.19-20.49,20.49s9.19,20.49,20.49,20.49c8.55,0,15.89-5.27,18.95-12.73h3.85c-3.24,9.49-12.22,16.35-22.8,16.35-13.29,0-24.1-10.81-24.1-24.1S15.56,4.09,28.85,4.09c10.53,0,19.48,6.8,22.75,16.22h-3.85c-3.09-7.4-10.4-12.61-18.91-12.61Z"/>
</svg>