<?xml version="1.0" encoding="UTF-8"?>
<svg id="Layer_2" data-name="Layer 2" xmlns="http://www.w3.org/2000/svg" viewBox="0 0 56.39 56.39">
  <defs>
    <style>
      .cls-1 {
        fill: #fff;
      }
    </style>
  </defs>
  <g id="Layer_1-2" data-name="Layer 1">
    <path class="cls-1" d="M28.2,0C12.62,0,0,12.62,0,28.2s12.62,28.2,28.2,28.2,28.2-12.62,28.2-28.2C56.39,12.62,43.77,0,28.2,0ZM28.85,52.3c-13.29,0-24.1-10.81-24.1-24.1S15.56,4.09,28.85,4.09c10.53,0,19.48,6.8,22.75,16.22h-3.85c-3.09-7.4-10.4-12.61-18.91-12.61-11.3,0-20.49,9.19-20.49,20.49s9.19,20.49,20.49,20.49c8.55,0,15.89-5.27,18.95-12.73h3.85c-3.24,9.49-12.22,16.35-22.8,16.35ZM16.2,18.07v-3.44h17.5v3.44h-7.23v11.74l9.58-9.55h4.87s-8.72,8.7-8.72,8.7l10.3,12.35h-4.86s-7.92-9.88-7.92-9.88l-3.25,3.24v6.6h-3.44v-23.21h-6.83Z"/>
  </g>
</svg>