<?xml version="1.0" encoding="UTF-8"?><svg id="Layer_2" xmlns="http://www.w3.org/2000/svg" viewBox="0 0 719.7 1212.12"><defs><style>.cls-1{fill:#047717;}.cls-2{fill:#dc7d50;}.cls-3{fill:#00fe65;}.cls-4{fill:#faa069;}</style></defs><g id="Layer_1-2"><polygon class="cls-1" points="255.81 454.55 464.14 454.55 710.36 0 502.02 0 255.81 454.55"/><path class="cls-2" d="M482.95,633.66h-246.21c-31.33,0-56.82-25.49-56.82-56.82v-103.35c0-31.33,25.49-56.82,56.82-56.82h246.21c31.33,0,56.82,25.49,56.82,56.82v103.35c0,31.33-25.49,56.82-56.82,56.82ZM236.74,454.55c-10.44,0-18.94,8.49-18.94,18.94v103.35c0,10.45,8.5,18.94,18.94,18.94h246.21c10.44,0,18.94-8.49,18.94-18.94v-103.35c0-10.45-8.5-18.94-18.94-18.94h-246.21Z"/><circle class="cls-4" cx="359.85" cy="852.27" r="359.85" transform="translate(-497.25 504.08) rotate(-45)"/><path class="cls-2" d="M359.85,1155.3c-167.09,0-303.03-135.94-303.03-303.03s135.94-303.03,303.03-303.03,303.03,135.94,303.03,303.03-135.94,303.03-303.03,303.03ZM359.85,568.18c-156.64,0-284.09,127.44-284.09,284.09s127.45,284.09,284.09,284.09,284.09-127.44,284.09-284.09-127.44-284.09-284.09-284.09Z"/><polygon class="cls-3" points="464.01 454.55 255.68 454.55 9.47 0 217.8 0 464.01 454.55"/><path class="cls-2" d="M182.83,785.26c8.71-5.26,15.41-11.6,20.18-16.67,4.75-5.06,7.51-8.94,7.49-8.95,0,0-2.35-2.42-7.07-3.99-4.73-1.54-11.95-2.35-21.62,2.21-9.45,4.47-16.64,12.38-21.14,19.24,5.49-13.42,12.39-26.26,20.59-38.23,1.57,1.17,4.64,2.89,9.27,3.66,4.59.76,10.73.59,18.44-1.49,9.86-2.62,18.05-6.86,24.04-10.43,5.99-3.54,9.73-6.49,9.73-6.51,0,0-1.59-2.96-5.68-5.79-4.12-2.79-10.84-5.57-21.42-3.88-10.32,1.66-19.44,7.26-25.65,12.59,6.25-7.89,13.1-15.3,20.44-22.21,0,0,15.29-.61,36.62-13.58,19.94-11.42,30.13-31.21,30.11-31.25,0,.04-18.05-5.45-43.63,9.43-19.03,12.18-25.51,27.84-26.88,31.39-7.58,7.12-14.67,14.8-21.12,22.98,3.9-7.51,8.62-17.45,11.56-28.55,3.02-11.28,2.46-18.92.74-23.77-1.7-4.86-4.48-6.82-4.48-6.81.02,0-5.46,4.45-11.45,12.27-5.98,7.81-12.26,19.08-14.11,31.15-1.42,9.49.15,15.9,2.31,20.18,2.16,4.25,4.94,6.45,6.58,7.49-8.45,12.34-15.57,25.63-21.22,39.49,1.67-8.3,3.42-19.16,3.16-30.67-.24-11.67-2.9-18.85-5.92-23.02-2.98-4.2-6.18-5.32-6.18-5.3.02,0-4,5.8-7.58,14.98-3.57,9.15-6.49,21.75-4.9,33.86,1.29,9.54,4.61,15.26,7.88,18.75,3.27,3.5,6.55,4.81,8.41,5.34-4.62,14.24-7.75,28.97-9.28,43.88-.72-8.44-2.07-19.35-5.57-30.33-3.52-11.12-8.06-17.29-12.13-20.45-4.03-3.2-7.42-3.37-7.42-3.35.02,0-2.24,6.69-3.07,16.53-.89,9.79-.13,22.71,4.83,33.88,3.88,8.77,8.69,13.32,12.78,15.76,4.12,2.44,7.66,2.78,9.6,2.78-.48,14.94.61,29.96,3.27,44.69-3.07-7.91-7.38-18.02-13.78-27.57-6.47-9.7-12.56-14.33-17.33-16.23-4.77-1.93-8.08-1.15-8.08-1.14.02,0-.24,7.02,1.67,16.66,1.89,9.64,6.18,21.82,14.04,31.2,6.18,7.36,12.02,10.4,16.65,11.6,4.66,1.2,8.12.57,10.01,0,3.7,14.52,8.95,28.61,15.65,42.01-5.14-6.73-12.13-15.21-20.94-22.6-8.95-7.53-16.09-10.29-21.21-10.77-5.11-.55-8.07,1.12-8.07,1.13.02-.03,1.7,6.86,6.27,15.61,4.5,8.74,12.06,19.25,22.21,26.03,7.99,5.36,14.5,6.6,19.27,6.47,4.79-.18,7.93-1.75,9.58-2.8,7.64,12.88,16.63,24.95,26.78,35.94-6.82-5.02-15.89-11.23-26.41-15.84-10.71-4.72-18.31-5.36-23.38-4.38-5.05.9-7.42,3.34-7.42,3.35,0-.02,3.57,6.08,10.38,13.21,6.77,7.13,16.96,15.07,28.59,18.74,9.16,2.9,15.74,2.32,20.29.86,4.55-1.5,7.16-3.91,8.43-5.37,10.91,10.26,22.9,19.36,35.71,27.1-7.95-2.94-18.38-6.37-29.78-7.9-11.58-1.55-19.09-.06-23.67,2.29-4.61,2.28-6.2,5.28-6.2,5.3,0-.04,5.12,4.84,13.63,9.77,8.47,4.97,20.47,9.78,32.7,10.08,9.6.24,15.76-2.16,19.72-4.84,3.96-2.7,5.77-5.71,6.6-7.49,13.32,6.8,27.39,12.2,41.87,16.01-8.45-.59-19.44-.94-30.81.78-11.56,1.76-18.35,5.25-22.1,8.8-3.77,3.47-4.49,6.8-4.48,6.8,0-.02,6.27,3.24,15.85,5.6,9.54,2.4,22.42,3.67,34.23.53,9.29-2.46,14.54-6.5,17.59-10.18,3.03-3.71,3.94-7.12,4.22-9.05,11.72,2.22,23.64,3.46,35.57,3.66,2.2.05,4-1.2,4-2.72-.02-1.54-1.76-2.76-3.9-2.81-11.64-.2-23.21-1.4-34.62-3.56.43-1.91.78-5.43-.37-9.96-1.13-4.54-3.75-10.05-8.73-16.31-6.33-7.95-13.46-13.77-19.1-17.87-5.62-4.07-9.82-6.3-9.84-6.3.02,0-2.07,2.62-3.05,7.52-.91,4.87-.79,12.15,4.96,21.17,5.66,8.79,14.39,14.94,21.79,18.5-14.02-3.71-27.63-8.94-40.56-15.53.98-1.71,2.29-4.99,2.46-9.65.18-4.68-.8-10.72-3.79-18.1-3.85-9.45-9.1-17.02-13.37-22.55-4.27-5.48-7.69-8.8-7.71-8.8,0,0-2.74,1.94-5.03,6.35-2.24,4.43-4.12,11.46-1.13,21.72,2.96,10.03,9.64,18.38,15.72,23.87-12.41-7.5-24.03-16.31-34.59-26.25,1.41-1.39,3.57-4.15,5.03-8.59,1.5-4.43,2.24-10.51,1.41-18.46-1.09-10.13-4.01-18.88-6.6-25.37-2.57-6.46-4.92-10.59-4.94-10.59.02,0-3.16,1.11-6.58,4.73-3.39,3.62-7.18,9.84-7.16,20.54.07,10.44,4.18,20.32,8.49,27.28-9.84-10.64-18.53-22.35-25.93-34.82,1.74-.93,4.61-3,7.23-6.87,2.66-3.84,5.07-9.46,6.47-17.33,1.79-10.01,1.44-19.22.8-26.13-.68-6.92-1.76-11.54-1.78-11.54,0,0-3.35.19-7.64,2.68-4.27,2.53-9.67,7.41-12.63,17.69-2.87,10.05-1.68,20.67.52,28.57-6.49-12.98-11.56-26.64-15.15-40.7,1.92-.42,5.25-1.58,8.86-4.54,3.62-2.95,7.53-7.67,11.1-14.81,4.53-9.11,6.77-18.06,8.06-24.93,1.29-6.84,1.55-11.62,1.54-11.63,0,0-3.25-.76-8.1.45-4.81,1.25-11.34,4.47-17.05,13.52-5.57,8.83-7.44,19.37-7.53,27.55-2.57-14.26-3.61-28.8-3.15-43.31,1.98.15,5.47-.06,9.77-1.9,4.35-1.82,9.36-5.28,14.78-11.17,6.88-7.51,11.5-15.48,14.67-21.68,3.12-6.2,4.72-10.67,4.68-10.69,0,.02-2.92-1.65-7.9-1.83-4.96-.15-12.11,1.11-20.14,8.19-7.79,6.95-12.49,16.55-14.87,24.4,1.48-14.43,4.53-28.68,9.01-42.47,1.85.68,5.29,1.47,9.93.92,4.66-.55,10.49-2.43,17.31-6.57Z"/><path class="cls-2" d="M536.85,785.26c-8.73-5.26-15.41-11.6-20.18-16.67-4.75-5.06-7.53-8.94-7.51-8.95,0,0,2.33-2.42,7.07-3.99,4.73-1.54,11.95-2.35,21.6,2.21,9.47,4.47,16.67,12.38,21.16,19.24-5.49-13.42-12.39-26.26-20.57-38.23-1.59,1.17-4.66,2.89-9.29,3.66-4.59.76-10.73.59-18.42-1.49-9.88-2.62-18.07-6.86-24.06-10.43-5.99-3.54-9.73-6.49-9.73-6.51,0,0,1.59-2.96,5.7-5.79,4.11-2.79,10.84-5.57,21.4-3.88,10.34,1.66,19.44,7.26,25.67,12.59-6.25-7.89-13.09-15.3-20.46-22.21,0,0-15.26-.61-36.6-13.58-19.92-11.42-30.13-31.21-30.09-31.25-.02.04,18.03-5.45,43.61,9.43,19.03,12.18,25.5,27.84,26.87,31.39,7.6,7.12,14.67,14.8,21.14,22.98-3.9-7.51-8.62-17.45-11.58-28.55-3.01-11.28-2.44-18.92-.74-23.77,1.72-4.86,4.47-6.82,4.47-6.81-.02,0,5.46,4.45,11.45,12.27,5.97,7.81,12.26,19.08,14.11,31.15,1.42,9.49-.15,15.9-2.29,20.18-2.16,4.25-4.96,6.45-6.6,7.49,8.45,12.34,15.57,25.63,21.23,39.49-1.66-8.3-3.44-19.16-3.16-30.67.24-11.67,2.9-18.85,5.9-23.02,2.98-4.2,6.2-5.32,6.2-5.3-.04,0,4,5.8,7.58,14.98,3.57,9.15,6.47,21.75,4.88,33.86-1.26,9.54-4.59,15.26-7.86,18.75-3.29,3.5-6.55,4.81-8.42,5.34,4.62,14.24,7.75,28.97,9.27,43.88.76-8.44,2.09-19.35,5.59-30.33,3.5-11.12,8.06-17.29,12.13-20.45,4.01-3.2,7.42-3.37,7.42-3.35-.04,0,2.22,6.69,3.07,16.53.87,9.79.11,22.71-4.84,33.88-3.87,8.77-8.69,13.32-12.76,15.76-4.14,2.44-7.68,2.78-9.62,2.78.48,14.94-.59,29.96-3.25,44.69,3.05-7.91,7.38-18.02,13.76-27.57,6.47-9.7,12.58-14.33,17.35-16.23,4.75-1.93,8.08-1.15,8.08-1.14-.02,0,.24,7.02-1.67,16.66-1.89,9.64-6.18,21.82-14.04,31.2-6.16,7.36-12.04,10.4-16.66,11.6-4.64,1.2-8.12.57-9.97,0-3.72,14.52-8.97,28.61-15.68,42.01,5.16-6.73,12.15-15.21,20.95-22.6,8.93-7.53,16.07-10.29,21.21-10.77,5.1-.55,8.06,1.12,8.06,1.13-.02-.03-1.72,6.86-6.27,15.61-4.49,8.74-12.06,19.25-22.23,26.03-7.99,5.36-14.46,6.6-19.25,6.47-4.79-.18-7.93-1.75-9.56-2.8-7.64,12.88-16.63,24.95-26.78,35.94,6.81-5.02,15.87-11.23,26.41-15.84,10.69-4.72,18.31-5.36,23.4-4.38,5.03.9,7.42,3.34,7.4,3.35,0-.02-3.57,6.08-10.38,13.21-6.77,7.13-16.96,15.07-28.61,18.74-9.16,2.9-15.72,2.32-20.29.86-4.55-1.5-7.14-3.91-8.42-5.37-10.89,10.26-22.9,19.36-35.72,27.1,7.95-2.94,18.39-6.37,29.8-7.9,11.58-1.55,19.07-.06,23.67,2.29,4.59,2.28,6.2,5.28,6.18,5.3,0-.04-5.11,4.84-13.63,9.77-8.47,4.97-20.47,9.78-32.68,10.08-9.62.24-15.78-2.16-19.74-4.84-3.96-2.7-5.77-5.71-6.6-7.49-13.33,6.8-27.37,12.2-41.85,16.01,8.45-.59,19.42-.94,30.81.78,11.54,1.76,18.33,5.25,22.1,8.8,3.77,3.47,4.48,6.8,4.48,6.8,0-.02-6.29,3.24-15.87,5.6-9.54,2.4-22.42,3.67-34.21.53-9.3-2.46-14.54-6.5-17.59-10.18-3.05-3.71-3.94-7.12-4.22-9.05-11.74,2.22-23.64,3.46-35.57,3.66-2.22.05-3.99-1.2-3.99-2.72s1.74-2.76,3.88-2.81c11.62-.2,23.23-1.4,34.62-3.56-.42-1.91-.76-5.43.39-9.96,1.13-4.54,3.74-10.05,8.73-16.31,6.33-7.95,13.45-13.77,19.11-17.87,5.6-4.07,9.8-6.3,9.82-6.3,0,0,2.09,2.62,3.05,7.52.93,4.87.8,12.15-4.96,21.17-5.62,8.79-14.39,14.94-21.77,18.5,14.04-3.71,27.63-8.94,40.52-15.53-.92-1.71-2.26-4.99-2.4-9.65-.2-4.68.76-10.72,3.79-18.1,3.83-9.45,9.08-17.02,13.37-22.55,4.27-5.48,7.67-8.8,7.69-8.8,0,0,2.74,1.94,5.01,6.35,2.26,4.43,4.16,11.46,1.17,21.72-2.98,10.03-9.66,18.38-15.74,23.87,12.39-7.5,24.03-16.31,34.59-26.25-1.41-1.39-3.59-4.15-5.05-8.59-1.48-4.43-2.24-10.51-1.39-18.46,1.07-10.13,4.01-18.88,6.58-25.37,2.59-6.46,4.94-10.59,4.94-10.59,0,0,3.16,1.11,6.6,4.73,3.38,3.62,7.18,9.84,7.14,20.54-.08,10.44-4.16,20.32-8.47,27.28,9.82-10.64,18.53-22.35,25.91-34.82-1.74-.93-4.59-3-7.23-6.87-2.66-3.84-5.05-9.46-6.47-17.33-1.79-10.01-1.44-19.22-.78-26.13.65-6.92,1.74-11.54,1.76-11.54,0,0,3.35.19,7.66,2.68,4.29,2.53,9.65,7.41,12.61,17.69,2.88,10.05,1.68,20.67-.5,28.57,6.47-12.98,11.56-26.64,15.15-40.7-1.94-.42-5.25-1.58-8.88-4.54-3.62-2.95-7.53-7.67-11.08-14.81-4.55-9.11-6.79-18.06-8.08-24.93-1.31-6.84-1.55-11.62-1.54-11.63,0,0,3.26-.76,8.1.45,4.81,1.25,11.34,4.47,17.03,13.52,5.58,8.83,7.45,19.37,7.55,27.55,2.57-14.26,3.61-28.8,3.14-43.31-1.98.15-5.49-.06-9.79-1.9-4.31-1.82-9.34-5.28-14.76-11.17-6.88-7.51-11.5-15.48-14.65-21.68-3.15-6.2-4.72-10.67-4.72-10.69,0,.02,2.94-1.65,7.92-1.83,4.96-.15,12.11,1.11,20.12,8.19,7.79,6.95,12.5,16.55,14.87,24.4-1.48-14.43-4.51-28.68-8.99-42.47-1.85.68-5.29,1.47-9.91.92-4.72-.55-10.54-2.43-17.37-6.57Z"/></g></svg>