<?xml version="1.0" encoding="UTF-8"?>
<svg id="Layer_2" xmlns="http://www.w3.org/2000/svg" version="1.1" viewBox="0 0 719.7 1212.1">
  <!-- Generator: Adobe Illustrator 29.2.1, SVG Export Plug-In . SVG Version: 2.1.0 Build 116)  -->
  <g id="Layer_1-2">
    <polygon points="255.8 454.5 464.1 454.5 710.4 0 502 0 255.8 454.5" style="fill: #047717;"/>
    <path d="M483,633.7h-246.2c-31.3,0-56.8-25.5-56.8-56.8v-103.4c0-31.3,25.5-56.8,56.8-56.8h246.2c31.3,0,56.8,25.5,56.8,56.8v103.4c0,31.3-25.5,56.8-56.8,56.8h0ZM236.7,454.5c-10.4,0-18.9,8.5-18.9,18.9v103.3c0,10.5,8.5,18.9,18.9,18.9h246.2c10.5,0,18.9-8.5,18.9-18.9v-103.4c0-10.5-8.5-18.9-18.9-18.9h-246.2Z" style="fill: #f59b19;"/>
    <circle cx="359.8" cy="852.3" r="359.8" style="fill: #ffc300;"/>
    <path d="M359.9,1155.3c-167.1,0-303-135.9-303-303s135.9-303,303-303,303,135.9,303,303-135.9,303-303,303ZM359.9,568.2c-156.6,0-284.1,127.4-284.1,284.1s127.4,284.1,284.1,284.1,284.1-127.4,284.1-284.1-127.4-284.1-284.1-284.1h0Z" style="fill: #f59b19;"/>
    <polygon points="464 454.5 255.7 454.5 9.5 0 217.8 0 464 454.5" style="fill: #00fe65;"/>
    <path d="M182.8,785.3c8.7-5.3,15.4-11.6,20.2-16.7,4.8-5.1,7.5-8.9,7.5-9,0,0-2.4-2.4-7.1-4-4.7-1.5-11.9-2.3-21.6,2.2-9.5,4.5-16.7,12.4-21.1,19.2,5.5-13.4,12.4-26.3,20.6-38.2,1.6,1.2,4.6,2.9,9.3,3.7,4.6.8,10.7.6,18.4-1.5,9.9-2.6,18.1-6.9,24-10.4,6-3.5,9.7-6.5,9.7-6.5,0,0-1.6-3-5.7-5.8-4.1-2.8-10.8-5.6-21.4-3.9-10.3,1.7-19.4,7.3-25.6,12.6,6.2-7.9,13.1-15.3,20.4-22.2,0,0,15.3-.6,36.6-13.6,19.9-11.4,30.1-31.2,30.1-31.2,0,0-18-5.5-43.6,9.4-19,12.2-25.5,27.8-26.9,31.4-7.6,7.1-14.7,14.8-21.1,23,3.9-7.5,8.6-17.5,11.6-28.5,3-11.3,2.5-18.9.7-23.8-1.7-4.9-4.5-6.8-4.5-6.8,0,0-5.4,4.5-11.4,12.3-6,7.8-12.3,19.1-14.1,31.2-1.4,9.5.1,15.9,2.3,20.2,2.2,4.2,4.9,6.5,6.6,7.5-8.4,12.3-15.6,25.6-21.2,39.5,1.7-8.3,3.4-19.2,3.2-30.7-.2-11.7-2.9-18.8-5.9-23-3-4.2-6.2-5.3-6.2-5.3,0,0-4,5.8-7.6,15-3.6,9.2-6.5,21.8-4.9,33.9,1.3,9.5,4.6,15.3,7.9,18.8,3.3,3.5,6.6,4.8,8.4,5.3-4.6,14.2-7.7,29-9.3,43.9-.7-8.4-2.1-19.3-5.6-30.3-3.5-11.1-8.1-17.3-12.1-20.5-4-3.2-7.4-3.4-7.4-3.3,0,0-2.2,6.7-3.1,16.5-.9,9.8-.1,22.7,4.8,33.9,3.9,8.8,8.7,13.3,12.8,15.8,4.1,2.4,7.7,2.8,9.6,2.8-.5,14.9.6,30,3.3,44.7-3.1-7.9-7.4-18-13.8-27.6-6.5-9.7-12.6-14.3-17.3-16.2-4.8-1.9-8.1-1.2-8.1-1.1,0,0-.2,7,1.7,16.7,1.9,9.6,6.2,21.8,14,31.2,6.2,7.4,12,10.4,16.6,11.6,4.7,1.2,8.1.6,10,0,3.7,14.5,8.9,28.6,15.6,42-5.1-6.7-12.1-15.2-20.9-22.6-8.9-7.5-16.1-10.3-21.2-10.8-5.1-.5-8.1,1.1-8.1,1.1,0,0,1.7,6.9,6.3,15.6,4.5,8.7,12.1,19.2,22.2,26,8,5.4,14.5,6.6,19.3,6.5,4.8-.2,7.9-1.8,9.6-2.8,7.6,12.9,16.6,25,26.8,35.9-6.8-5-15.9-11.2-26.4-15.8-10.7-4.7-18.3-5.4-23.4-4.4-5.1.9-7.4,3.3-7.4,3.3,0,0,3.6,6.1,10.4,13.2,6.8,7.1,16.9,15.1,28.6,18.7,9.2,2.9,15.7,2.3,20.3.9,4.6-1.5,7.2-3.9,8.4-5.4,10.9,10.3,22.9,19.4,35.7,27.1-7.9-2.9-18.4-6.4-29.8-7.9-11.6-1.6-19.1,0-23.7,2.3-4.6,2.3-6.2,5.3-6.2,5.3,0,0,5.1,4.8,13.6,9.8,8.5,5,20.5,9.8,32.7,10.1,9.6.2,15.8-2.2,19.7-4.8,4-2.7,5.8-5.7,6.6-7.5,13.3,6.8,27.4,12.2,41.9,16-8.5-.6-19.5-.9-30.8.8-11.6,1.8-18.4,5.2-22.1,8.8-3.8,3.5-4.5,6.8-4.5,6.8,0,0,6.3,3.2,15.9,5.6,9.5,2.4,22.4,3.7,34.2.5,9.3-2.5,14.5-6.5,17.6-10.2,3-3.7,3.9-7.1,4.2-9.1,11.7,2.2,23.6,3.5,35.6,3.7,2.2,0,4-1.2,4-2.7s-1.8-2.8-3.9-2.8c-11.6-.2-23.2-1.4-34.6-3.6.4-1.9.8-5.4-.4-10-1.1-4.5-3.8-10.1-8.7-16.3-6.3-8-13.5-13.8-19.1-17.9-5.6-4.1-9.8-6.3-9.8-6.3,0,0-2.1,2.6-3,7.5-.9,4.9-.8,12.1,5,21.2,5.6,8.8,14.4,14.9,21.8,18.5-14-3.7-27.6-8.9-40.6-15.5,1-1.7,2.3-5,2.5-9.7.2-4.7-.8-10.7-3.8-18.1-3.9-9.5-9.1-17-13.4-22.5-4.3-5.5-7.7-8.8-7.7-8.8,0,0-2.7,1.9-5,6.3-2.2,4.4-4.1,11.5-1.1,21.7,3,10,9.6,18.4,15.7,23.9-12.4-7.5-24-16.3-34.6-26.2,1.4-1.4,3.6-4.2,5-8.6,1.5-4.4,2.2-10.5,1.4-18.5-1.1-10.1-4-18.9-6.6-25.4-2.6-6.5-4.9-10.6-4.9-10.6,0,0-3.2,1.1-6.6,4.7-3.4,3.6-7.2,9.8-7.1,20.5,0,10.4,4.2,20.3,8.5,27.3-9.8-10.6-18.5-22.3-25.9-34.8,1.7-.9,4.6-3,7.2-6.9,2.7-3.8,5.1-9.5,6.5-17.3,1.8-10,1.4-19.2.8-26.1-.7-6.9-1.8-11.5-1.8-11.5,0,0-3.4.2-7.6,2.7-4.3,2.5-9.7,7.4-12.6,17.7-2.9,10-1.7,20.7.5,28.6-6.5-13-11.6-26.6-15.2-40.7,1.9-.4,5.3-1.6,8.9-4.5,3.6-3,7.5-7.7,11.1-14.8,4.5-9.1,6.8-18.1,8.1-24.9,1.3-6.8,1.6-11.6,1.5-11.6,0,0-3.2-.8-8.1.5-4.8,1.2-11.3,4.5-17.1,13.5-5.6,8.8-7.4,19.4-7.5,27.5-2.6-14.3-3.6-28.8-3.1-43.3,2,.2,5.5,0,9.8-1.9,4.3-1.8,9.4-5.3,14.8-11.2,6.9-7.5,11.5-15.5,14.7-21.7,3.1-6.2,4.7-10.7,4.7-10.7,0,0-2.9-1.7-7.9-1.8-5-.2-12.1,1.1-20.1,8.2-7.8,7-12.5,16.5-14.9,24.4,1.5-14.4,4.5-28.7,9-42.5,1.9.7,5.3,1.5,9.9.9,4.6-.5,10.5-2.4,17.3-6.6h0Z" style="fill: #f59b19;"/>
    <path d="M536.8,785.3c-8.7-5.3-15.4-11.6-20.2-16.7-4.8-5.1-7.5-8.9-7.5-9,0,0,2.3-2.4,7.1-4,4.7-1.5,12-2.3,21.6,2.2,9.5,4.5,16.7,12.4,21.2,19.2-5.5-13.4-12.4-26.3-20.6-38.2-1.6,1.2-4.7,2.9-9.3,3.7-4.6.8-10.7.6-18.4-1.5-9.9-2.6-18.1-6.9-24.1-10.4-6-3.5-9.7-6.5-9.7-6.5,0,0,1.6-3,5.7-5.8,4.1-2.8,10.8-5.6,21.4-3.9,10.3,1.7,19.4,7.3,25.7,12.6-6.2-7.9-13.1-15.3-20.5-22.2,0,0-15.3-.6-36.6-13.6-19.9-11.4-30.1-31.2-30.1-31.2,0,0,18-5.5,43.6,9.4,19,12.2,25.5,27.8,26.9,31.4,7.6,7.1,14.7,14.8,21.1,23-3.9-7.5-8.6-17.5-11.6-28.5-3-11.3-2.4-18.9-.7-23.8,1.7-4.9,4.5-6.8,4.5-6.8,0,0,5.5,4.5,11.4,12.3,6,7.8,12.3,19.1,14.1,31.2,1.4,9.5-.1,15.9-2.3,20.2-2.2,4.2-5,6.5-6.6,7.5,8.4,12.3,15.6,25.6,21.2,39.5-1.7-8.3-3.4-19.2-3.2-30.7.2-11.7,2.9-18.8,5.9-23,3-4.2,6.2-5.3,6.2-5.3,0,0,4,5.8,7.6,15,3.6,9.2,6.5,21.8,4.9,33.9-1.3,9.5-4.6,15.3-7.9,18.8-3.3,3.5-6.5,4.8-8.4,5.3,4.6,14.2,7.8,29,9.3,43.9.8-8.4,2.1-19.3,5.6-30.3,3.5-11.1,8-17.3,12.1-20.5,4-3.2,7.4-3.4,7.4-3.3,0,0,2.2,6.7,3.1,16.5.9,9.8.1,22.7-4.8,33.9-3.9,8.8-8.7,13.3-12.8,15.8-4.1,2.4-7.7,2.8-9.6,2.8.5,14.9-.6,30-3.2,44.7,3-7.9,7.4-18,13.8-27.6,6.5-9.7,12.6-14.3,17.3-16.2,4.7-1.9,8.1-1.2,8.1-1.1,0,0,.2,7-1.7,16.7-1.9,9.6-6.2,21.8-14,31.2-6.2,7.4-12,10.4-16.7,11.6-4.6,1.2-8.1.6-10,0-3.7,14.5-9,28.6-15.7,42,5.2-6.7,12.1-15.2,21-22.6,8.9-7.5,16.1-10.3,21.2-10.8,5.1-.5,8.1,1.1,8.1,1.1,0,0-1.7,6.9-6.3,15.6-4.5,8.7-12.1,19.2-22.2,26-8,5.4-14.5,6.6-19.2,6.5-4.8-.2-7.9-1.8-9.6-2.8-7.6,12.9-16.6,25-26.8,35.9,6.8-5,15.9-11.2,26.4-15.8,10.7-4.7,18.3-5.4,23.4-4.4,5,.9,7.4,3.3,7.4,3.3,0,0-3.6,6.1-10.4,13.2-6.8,7.1-17,15.1-28.6,18.7-9.2,2.9-15.7,2.3-20.3.9-4.5-1.5-7.1-3.9-8.4-5.4-10.9,10.3-22.9,19.4-35.7,27.1,8-2.9,18.4-6.4,29.8-7.9,11.6-1.6,19.1,0,23.7,2.3,4.6,2.3,6.2,5.3,6.2,5.3,0,0-5.1,4.8-13.6,9.8-8.5,5-20.5,9.8-32.7,10.1-9.6.2-15.8-2.2-19.7-4.8-4-2.7-5.8-5.7-6.6-7.5-13.3,6.8-27.4,12.2-41.9,16,8.5-.6,19.4-.9,30.8.8,11.5,1.8,18.3,5.2,22.1,8.8,3.8,3.5,4.5,6.8,4.5,6.8,0,0-6.3,3.2-15.9,5.6-9.5,2.4-22.4,3.7-34.2.5-9.3-2.5-14.5-6.5-17.6-10.2-3-3.7-3.9-7.1-4.2-9.1-11.7,2.2-23.6,3.5-35.6,3.7-2.2,0-4-1.2-4-2.7,0-1.5,1.8-2.8,3.9-2.8,11.6-.2,23.2-1.4,34.6-3.6-.4-1.9-.8-5.4.4-10,1.1-4.5,3.7-10.1,8.7-16.3,6.3-8,13.5-13.8,19.1-17.9,5.6-4.1,9.8-6.3,9.8-6.3,0,0,2.1,2.6,3,7.5.9,4.9.8,12.1-5,21.2-5.6,8.8-14.4,14.9-21.8,18.5,14-3.7,27.6-8.9,40.5-15.5-.9-1.7-2.3-5-2.4-9.7-.2-4.7.8-10.7,3.8-18.1,3.8-9.5,9.1-17,13.4-22.5,4.3-5.5,7.7-8.8,7.7-8.8,0,0,2.7,1.9,5,6.3,2.3,4.4,4.2,11.5,1.2,21.7-3,10-9.7,18.4-15.7,23.9,12.4-7.5,24-16.3,34.6-26.2-1.4-1.4-3.6-4.2-5-8.6-1.5-4.4-2.2-10.5-1.4-18.5,1.1-10.1,4-18.9,6.6-25.4,2.6-6.5,4.9-10.6,5-10.6,0,0,3.2,1.1,6.6,4.7,3.4,3.6,7.2,9.8,7.1,20.5,0,10.4-4.2,20.3-8.5,27.3,9.8-10.6,18.5-22.3,25.9-34.8-1.7-.9-4.6-3-7.2-6.9-2.7-3.8-5.1-9.5-6.5-17.3-1.8-10-1.4-19.2-.8-26.1.7-6.9,1.8-11.5,1.8-11.5,0,0,3.3.2,7.7,2.7,4.3,2.5,9.7,7.4,12.6,17.7,2.9,10,1.7,20.7-.5,28.6,6.5-13,11.5-26.6,15.1-40.7-1.9-.4-5.2-1.6-8.9-4.5-3.6-3-7.5-7.7-11.1-14.8-4.5-9.1-6.8-18.1-8.1-24.9-1.3-6.8-1.5-11.6-1.5-11.6,0,0,3.3-.8,8.1.5,4.8,1.2,11.3,4.5,17,13.5,5.6,8.8,7.4,19.4,7.5,27.5,2.6-14.3,3.6-28.8,3.1-43.3-2,.2-5.5,0-9.8-1.9-4.3-1.8-9.3-5.3-14.8-11.2-6.9-7.5-11.5-15.5-14.7-21.7-3.1-6.2-4.7-10.7-4.7-10.7,0,0,2.9-1.7,7.9-1.8,5-.2,12.1,1.1,20.1,8.2,7.8,7,12.5,16.5,14.9,24.4-1.5-14.4-4.5-28.7-9-42.5-1.9.7-5.3,1.5-9.9.9-4.7-.5-10.5-2.4-17.4-6.6h0Z" style="fill: #f59b19;"/>
  </g>
</svg>